PathFileType	4	(X/Y/Z)	Walk6.trc
DataRate	CameraRate	NumFrames	NumMarkers	Units	OrigDataRate	OrigDataStartFrame	OrigNumFrames
200.000000	200.000000	6	60	mm	200.000000	711	752
Frame#	Times		RCAR		LTH3		RTH2		LBHD		LWRU		LCAR		LUA1		LFA1		LElbow		RTB3		RFA1		RToe		RASI		LElbowM		RMT5		RTB2		C7		RLFC		LTH2		RBHD		RPSI		LWRR		RMT1		RWRU		RTB1		LASI		RTB4		STRN		T10		CLAV		RBack		LPSI		RLMAL		RElbow		LTH4		LLFC		RUA1		LTB4		LACR1		LTB3		RCAL		LFHD		RTH3		LCAL		LTB1		LMMAL		RElbowM		RTH1		LTB2		RFHD		RACR1		LMFC		RTH4		RMFC		LLMAL		LMT5		RWRR		LTH1		LToe		LMT1
			X1	Y1	Z1	X2	Y2	Z2	X3	Y3	Z3	X4	Y4	Z4	X5	Y5	Z5	X6	Y6	Z6	X7	Y7	Z7	X8	Y8	Z8	X9	Y9	Z9	X10	Y10	Z10	X11	Y11	Z11	X12	Y12	Z12	X13	Y13	Z13	X14	Y14	Z14	X15	Y15	Z15	X16	Y16	Z16	X17	Y17	Z17	X18	Y18	Z18	X19	Y19	Z19	X20	Y20	Z20	X21	Y21	Z21	X22	Y22	Z22	X23	Y23	Z23	X24	Y24	Z24	X25	Y25	Z25	X26	Y26	Z26	X27	Y27	Z27	X28	Y28	Z28	X29	Y29	Z29	X30	Y30	Z30	X31	Y31	Z31	X32	Y32	Z32	X33	Y33	Z33	X34	Y34	Z34	X35	Y35	Z35	X36	Y36	Z36	X37	Y37	Z37	X38	Y38	Z38	X39	Y39	Z39	X40	Y40	Z40	X41	Y41	Z41	X42	Y42	Z42	X43	Y43	Z43	X44	Y44	Z44	X45	Y45	Z45	X46	Y46	Z46	X47	Y47	Z47	X48	Y48	Z48	X49	Y49	Z49	X50	Y50	Z50	X51	Y51	Z51	X52	Y52	Z52	X53	Y53	Z53	X54	Y54	Z54	X55	Y55	Z55	X56	Y56	Z56	X57	Y57	Z57	X58	Y58	Z58	X59	Y59	Z59	X60	Y60	Z60

711	3.555	772.37	850.02	338.88	706.02	620.12	-148.91	845.45	743.64	192.3	673.04	1652.1	-82.852	815.46	888.72	-298.4	895.8	865.69	-301.67	713.48	1310.3	-274.99	759.95	1010.5	-312.72	709.79	1154.2	-305.57	738.2	227.1	137.73	671.33	1007.4	314.7	808.05	49.704	178.82	765.89	1056.4	149.23	671.42	1137.7	-240	712.01	52.217	213.45	747.08	315.07	206.65	657.36	1525.9	-9.6817	806.47	523.17	216.11	777.37	713.2	-141.34	681.63	1660.7	59.194	556.1	1036.3	48.128	877.92	913.9	-247.77	768.5	50.324	148.69	710.91	876.38	323.01	824.89	390.82	156.23	764.69	1048.8	-134.35	782.92	307.79	145.78	838.19	1267.4	-7.4248	556.95	1302.5	-9.5376	791.24	1441.5	-8.0219	578.04	1438.8	118.53	554.79	1034.5	-29.94	642.05	129.35	169.56	644.51	1154.4	284.23	709.33	711.34	-165.38	693.29	516.37	-137.1	686.97	1307	250.14	706.06	288.16	-56.165	732.31	1480.8	-174.28	685.57	193.87	-55.764	589.15	108	109.24	849.57	1706.5	-51.668	799.4	635.72	218.78	563.63	28.067	-57.085	724.61	376.15	-58.931	651.41	90.493	-15.053	628.76	1136.4	207.02	751.84	819.11	214.12	685.85	291.68	-129.52	853.95	1709.7	24.953	730.61	1477.2	153.01	701.61	521.78	-7.7559	786.5	742.93	228.74	840.7	531.11	88.5	625.2	70.344	-97.306	723.87	22.101	-131.39	775.44	887.8	283.79	716.71	802.51	-179.67	824.4	31.392	-61.068	770.87	39.893	-46.44
712	3.56	773.21	849.18	338.98	707.87	620.12	-148.99	850.83	744.42	191.73	678.09	1652.1	-82.728	825	889.97	-299.13	905.57	867.7	-302.33	719.62	1310.6	-275.22	768.47	1011.3	-313.47	717.03	1154.6	-306.26	751.77	225.63	137.68	673.35	1007.3	314.41	826.01	50.114	179.34	770.35	1056.3	149.21	678.66	1137.7	-240.82	729.8	50.44	213.8	758.4	313.99	206.51	662.33	1525.9	-9.6885	813.45	523.6	215.75	779.94	712.59	-141.36	686.67	1660.6	59.319	560.6	1036.4	48.11	887.18	915.68	-248.41	786.48	49.861	149.11	712.05	876.04	322.91	834.46	391.42	155.94	769.22	1048.7	-134.35	794.47	307.4	145.62	842.93	1267.2	-7.3863	561.74	1302.5	-9.6927	796.13	1441.4	-7.924	582.77	1438.9	118.33	559.26	1034.6	-29.966	657.96	125.63	169.59	647.6	1154.4	283.86	711.89	711.29	-165.39	694.35	516.35	-137.16	690.73	1306.9	250.1	706.5	288.09	-56.219	737.49	1480.8	-174.15	685.84	193.83	-55.805	605.73	102.68	109.2	854.67	1706.3	-51.507	805.59	636.27	218.56	563.67	28.119	-57.057	725.23	376.02	-58.975	651.42	90.537	-15.073	632.11	1136.5	206.62	756.79	819.44	214.29	686.31	291.64	-129.58	859.02	1709.5	25.121	735.34	1477	153.14	702.81	521.67	-7.8351	791.94	743.74	228.97	846.93	531.8	87.91	625.18	70.402	-97.299	723.88	22.091	-131.39	776.79	886.99	283.94	720.01	802.44	-179.72	824.39	31.382	-61.055	770.82	39.862	-46.427
713	3.565	774.11	848.37	339.09	709.73	620.1	-149.07	856.14	745.09	191.17	683.16	1652	-82.596	834.51	891.2	-299.81	915.27	869.7	-302.96	725.75	1310.9	-275.44	776.96	1012.1	-314.2	724.25	1154.9	-306.94	765.39	224.19	137.66	675.42	1007.2	314.14	844.02	50.666	179.9	774.84	1056.1	149.21	685.88	1137.6	-241.62	747.69	48.791	214.2	769.7	312.91	206.37	667.32	1525.8	-9.6774	820.28	523.96	215.37	782.53	711.98	-141.37	691.72	1660.4	59.455	565.11	1036.4	48.108	896.38	917.44	-249.02	804.53	49.528	149.56	713.25	875.69	322.84	843.95	392	155.65	773.77	1048.5	-134.32	806	307.02	145.47	847.67	1266.9	-7.3146	566.54	1302.6	-9.8164	801.04	1441.2	-7.8074	587.52	1438.9	118.15	563.74	1034.7	-29.974	674.01	121.96	169.66	650.71	1154.4	283.52	714.46	711.23	-165.4	695.44	516.33	-137.21	694.52	1306.7	250.08	706.96	288.02	-56.271	742.68	1480.8	-173.99	686.11	193.8	-55.848	622.52	97.425	109.2	859.78	1706.1	-51.343	811.64	636.74	218.32	563.7	28.182	-57.032	725.87	375.89	-59.022	651.42	90.583	-15.094	635.48	1136.6	206.24	761.69	819.71	214.48	686.77	291.61	-129.63	864.1	1709.3	25.29	740.1	1476.8	153.29	704.02	521.55	-7.9114	797.13	744.06	228.99	853.01	532.38	87.299	625.15	70.462	-97.293	723.88	22.085	-131.4	778.21	886.21	284.11	723.31	802.37	-179.79	824.39	31.372	-61.043	770.77	39.828	-46.414
714	3.57	775.08	847.58	339.23	711.63	620.08	-149.15	861.36	745.66	190.61	688.23	1651.9	-82.454	843.97	892.41	-300.46	924.91	871.67	-303.55	731.87	1311.1	-275.64	785.4	1012.8	-314.9	731.43	1155.2	-307.6	779.05	222.81	137.67	677.52	1007.1	313.9	862.06	51.372	180.49	779.34	1055.9	149.25	693.06	1137.4	-242.41	765.68	47.284	214.64	780.97	311.85	206.22	672.33	1525.7	-9.6477	826.94	524.23	214.97	785.13	711.36	-141.36	696.78	1660.3	59.602	569.63	1036.4	48.121	905.52	919.18	-249.59	822.64	49.338	150.03	714.53	875.32	322.81	853.33	392.57	155.36	778.34	1048.3	-134.27	817.5	306.67	145.34	852.43	1266.7	-7.2108	571.34	1302.6	-9.9082	805.96	1441	-7.6718	592.28	1438.9	118	568.23	1034.7	-29.962	690.21	118.38	169.76	653.83	1154.4	283.21	717.06	711.15	-165.4	696.55	516.31	-137.27	698.32	1306.6	250.09	707.44	287.95	-56.321	747.88	1480.8	-173.82	686.38	193.77	-55.893	639.49	92.257	109.25	864.89	1705.9	-51.178	817.57	637.12	218.07	563.73	28.256	-57.007	726.53	375.76	-59.072	651.43	90.632	-15.115	638.86	1136.7	205.89	766.54	819.93	214.66	687.24	291.57	-129.68	869.19	1709	25.46	744.87	1476.6	153.46	705.22	521.44	-7.9836	802.1	743.87	228.77	858.94	532.86	86.669	625.13	70.524	-97.287	723.87	22.082	-131.41	779.69	885.44	284.29	726.61	802.29	-179.87	824.38	31.36	-61.03	770.72	39.794	-46.404
715	3.575	776.12	846.81	339.39	713.56	620.04	-149.23	866.5	746.12	190.07	693.3	1651.7	-82.302	853.39	893.6	-301.06	934.48	873.63	-304.11	737.97	1311.4	-275.81	793.8	1013.6	-315.59	738.59	1155.5	-308.24	792.74	221.49	137.72	679.66	1006.9	313.68	880.12	52.242	181.1	783.87	1055.6	149.33	700.21	1137.3	-243.18	783.76	45.933	215.12	792.2	310.8	206.06	677.35	1525.6	-9.5989	833.45	524.41	214.55	787.75	710.72	-141.34	701.86	1660.1	59.761	574.16	1036.4	48.15	914.6	920.9	-250.13	840.79	49.303	150.53	715.89	874.93	322.81	862.62	393.12	155.08	782.91	1048	-134.19	828.97	306.33	145.23	857.2	1266.4	-7.0768	576.16	1302.6	-9.9677	810.89	1440.7	-7.5171	597.07	1438.8	117.86	572.73	1034.7	-29.932	706.53	114.89	169.91	656.98	1154.4	282.93	719.69	711.06	-165.39	697.68	516.28	-137.32	702.14	1306.4	250.12	707.93	287.87	-56.372	753.08	1480.6	-173.63	686.67	193.73	-55.939	656.63	87.2	109.36	870.01	1705.7	-51.01	823.35	637.41	217.8	563.76	28.339	-56.983	727.21	375.62	-59.126	651.44	90.683	-15.136	642.26	1136.8	205.55	771.35	820.08	214.86	687.71	291.54	-129.73	874.29	1708.7	25.633	749.67	1476.4	153.64	706.43	521.33	-8.0501	806.87	743.2	228.32	864.71	533.23	86.021	625.11	70.589	-97.282	723.86	22.08	-131.43	781.24	884.71	284.51	729.92	802.19	-179.94	824.38	31.348	-61.018	770.68	39.759	-46.396
716	3.58	777.23	846.06	339.57	715.52	619.99	-149.31	871.56	746.45	189.53	698.39	1651.5	-82.139	862.74	894.77	-301.63	943.98	875.56	-304.63	744.06	1311.6	-275.97	802.16	1014.3	-316.25	745.72	1155.8	-308.87	806.45	220.24	137.79	681.85	1006.8	313.49	898.19	53.288	181.7	788.41	1055.3	149.43	707.34	1137.2	-243.93	801.91	44.751	215.62	803.41	309.77	205.9	682.38	1525.4	-9.531	839.81	524.49	214.1	790.39	710.09	-141.29	706.95	1659.8	59.931	578.7	1036.3	48.196	923.62	922.59	-250.64	858.97	49.437	151.04	717.32	874.54	322.84	871.8	393.65	154.78	787.48	1047.7	-134.08	840.41	306.04	145.12	861.98	1266	-6.9143	580.99	1302.5	-9.9949	815.84	1440.4	-7.3431	601.88	1438.8	117.75	577.24	1034.6	-29.882	722.96	111.51	170.09	660.14	1154.4	282.67	722.34	710.95	-165.36	698.84	516.25	-137.38	706	1306.2	250.18	708.44	287.78	-56.423	758.29	1480.5	-173.43	686.97	193.7	-55.987	673.93	82.274	109.54	875.15	1705.4	-50.839	828.98	637.6	217.51	563.78	28.43	-56.958	727.92	375.49	-59.183	651.46	90.736	-15.158	645.67	1136.8	205.23	776.12	820.17	215.04	688.2	291.51	-129.77	879.4	1708.4	25.808	754.49	1476.1	153.84	707.65	521.23	-8.1097	811.49	742.13	227.67	870.35	533.48	85.353	625.09	70.659	-97.28	723.85	22.081	-131.45	782.85	883.99	284.74	733.25	802.08	-180.01	824.38	31.336	-61.006	770.64	39.725	-46.391
